# xmcd
#
# Track frame offsets: 
#        150
#        20814
#        39169
#        57183
#        76757
#        97811
#        124355
#        142083
#        166523
#        186834
#        205230
#        225940
#        248896
#        269209
#
# Disc length: 3914 seconds
#
# Revision: 0
# Processed by: cddbd v1.5.1PL2 Copyright (c) Steve Scherf et al.
# Submitted via: ExactAudioCopy v0.95b4
#
DISCID=b80f480e
DTITLE=Dixie Chicks - Taking the long way
DYEAR=2006
DGENRE=Pop
TTITLE0=The long way around
TTITLE1=Easy silence
TTITLE2=Not ready to make nice
TTITLE3=Everybody knows
TTITLE4=Bitter end
TTITLE5=Lullaby
TTITLE6=Lubbock or leave it
TTITLE7=Silent house
TTITLE8=Favorite year
TTITLE9=Voice inside my head
TTITLE10=I like it
TTITLE11=Baby hold on
TTITLE12=So hard
TTITLE13=I hope
EXTD=
EXTT0=
EXTT1=
EXTT2=
EXTT3=
EXTT4=
EXTT5=
EXTT6=
EXTT7=
EXTT8=
EXTT9=
EXTT10=
EXTT11=
EXTT12=
EXTT13=
PLAYORDER=
